<svg xmlns="http://www.w3.org/2000/svg" xmlns:xlink="http://www.w3.org/1999/xlink" viewBox="0,0,256,256" width="25px" height="25px" fill-rule="nonzero"><g fill="#0077cc" fill-rule="nonzero" stroke="none" stroke-width="1" stroke-linecap="butt" stroke-linejoin="miter" stroke-miterlimit="10" stroke-dasharray="" stroke-dashoffset="0" font-family="none" font-weight="none" font-size="none" text-anchor="none" style="mix-blend-mode: normal"><g transform="scale(5.12,5.12)"><path d="M32.011,9.986c7.385,0 7.989,0.646 7.989,8.01l-0.043,14.013c0.022,7.342 -0.563,7.97 -7.948,7.992h-14.013c-7.494,-0.022 -7.97,-0.498 -7.992,-7.992l-0.022,-13.992c0.043,-7.515 0.683,-7.992 7.029,-8.035zM37,15.413v-0.413h-6.785l-4.768,12.096l-5.692,-12.096h-6.68v0.413l1.533,2.065c0.076,0.09 0.117,0.203 0.117,0.32v12.484c0,0.183 -0.063,0.36 -0.179,0.502l-2.296,2.84v0.376h6.6v-0.375l-2.298,-2.857c-0.115,-0.141 -0.177,-0.318 -0.177,-0.499v-10.829l6.851,14.56h1.273l0.006,-0.016l5.895,-14.954v12.285c0,0.132 -0.053,0.259 -0.148,0.354l-2.327,1.956v0.375h9.075v-0.375l-1.502,-1.956c-0.095,-0.094 -0.148,-0.221 -0.148,-0.354v-13.734c0,-0.132 0.053,-0.259 0.148,-0.354z"></path></g></g></svg>